<svg xmlns="http://www.w3.org/2000/svg" xmlns:xlink="http://www.w3.org/1999/xlink" width="322.974" height="34.875" viewBox="0 0 322.974 34.875">
  <defs>
    <linearGradient id="linear-gradient" x1="0.5" y1="-0.096" x2="0.5" y2="0.905" gradientUnits="objectBoundingBox">
      <stop offset="0" stop-color="#16fafd"/>
      <stop offset="1" stop-color="#aa42ff"/>
    </linearGradient>
  </defs>
  <g id="metaverseed-logo-white" transform="translate(0.5 0.5)">
    <g id="Groupe_42" data-name="Groupe 42" transform="translate(0 0.445)">
      <g id="Groupe_41" data-name="Groupe 41" transform="translate(0)">
        <path id="Tracé_7" data-name="Tracé 7" d="M37.078-33.391H33.434a4.872,4.872,0,0,0-1.418.16,2.9,2.9,0,0,0-1.1.609,5.428,5.428,0,0,0-.809,1.176,13.2,13.2,0,0,0-.687,1.863l-7.176,17.91c-.039.164-.078.164-.121.164h-.4s-.082,0-.125-.164l-7.129-17.91c-.246-.77-.488-1.379-.691-1.863a5.428,5.428,0,0,0-.809-1.176,3.059,3.059,0,0,0-1.137-.609,5.06,5.06,0,0,0-1.418-.16H6.688a2.944,2.944,0,0,0-2.8,1.3,8.38,8.38,0,0,0-.648,3.93V-1.379c0,1.258.809,1.418,1.176,1.418H7.9c.363,0,1.133-.16,1.133-1.418V-25.812h.2c.043,0,.082,0,.121.121l6.93,17.141a21.349,21.349,0,0,0,.852,2.188,9.612,9.612,0,0,0,.973,1.5,3.381,3.381,0,0,0,1.3.891,5.01,5.01,0,0,0,1.621.246H22.7a4.805,4.805,0,0,0,1.617-.246,3.066,3.066,0,0,0,1.3-.891,7.269,7.269,0,0,0,.973-1.5,19.681,19.681,0,0,0,.852-2.188l6.973-17.184c0-.078.039-.078.078-.078h.2V-1.379c0,1.258.813,1.418,1.137,1.418h3.484c.363,0,1.176-.16,1.176-1.418V-28.164a8.38,8.38,0,0,0-.648-3.93A2.921,2.921,0,0,0,37.078-33.391Zm0,0" transform="translate(-3.242 33.391)" stroke="#16fafd" stroke-width="1" fill="url(#linear-gradient)"/>
      </g>
    </g>
    <g id="Groupe_44" data-name="Groupe 44" transform="translate(37.644 0.363)">
      <g id="Groupe_43" data-name="Groupe 43" transform="translate(0)">
        <path id="Tracé_8" data-name="Tracé 8" d="M27.6-7.254H13.332a7.467,7.467,0,0,1-2.105-.285,2.7,2.7,0,0,1-1.219-.891,4.186,4.186,0,0,1-.687-1.824c-.039-.2-.039-.484-.082-.687,0,0,.043-2.918.082-2.918H27.434c.324,0,1.137-.16,1.137-1.418v-3.2c0-1.254-.812-1.375-1.137-1.375l-20.91.039a3.345,3.345,0,0,0-2.754,1.7A3.154,3.154,0,0,0,3.324-17.1L3.242-12v.2A25.934,25.934,0,0,0,3.77-6.93,10.265,10.265,0,0,0,5.512-2.957,6.563,6.563,0,0,0,8.672-.73a12.555,12.555,0,0,0,4.539.691H27.6c.363,0,1.176-.121,1.176-1.379V-5.875C28.773-7.133,27.961-7.254,27.6-7.254Zm.039-26.219H4.336c-.324,0-1.094.16-1.094,1.457v3.164c0,1.254.77,1.375,1.094,1.375l23.3.043c.324,0,1.137-.164,1.137-1.418v-3.2C28.773-33.312,27.961-33.473,27.637-33.473Zm0,0" transform="translate(-3.242 33.473)" stroke="#16fafd" stroke-width="1" fill="url(#linear-gradient)"/>
      </g>
    </g>
    <g id="Groupe_46" data-name="Groupe 46" transform="translate(63.576 0.445)">
      <g id="Groupe_45" data-name="Groupe 45" transform="translate(0)">
        <path id="Tracé_9" data-name="Tracé 9" d="M31.242-33.391H4.418c-.367,0-1.176.121-1.176,1.375v3.164c0,1.336.809,1.457,1.176,1.457H14.832V-1.379C14.832-.121,15.641,0,15.965,0H19.7c.363,0,1.133-.121,1.133-1.379V-27.395H31.242c.367,0,1.176-.121,1.176-1.457v-3.164C32.418-33.27,31.609-33.391,31.242-33.391Zm0,0" transform="translate(-3.242 33.391)" stroke="#16fafd" stroke-width="1" fill="url(#linear-gradient)"/>
      </g>
    </g>
    <g id="Groupe_48" data-name="Groupe 48" transform="translate(93.195)">
      <g id="Groupe_47" data-name="Groupe 47" transform="translate(0)">
        <path id="Tracé_10" data-name="Tracé 10" d="M24.961-29.621c-.078-.2-.16-.449-.242-.609a5.079,5.079,0,0,0-4.82-3.605,4.841,4.841,0,0,0-2.8.848,4.447,4.447,0,0,0-.609.406,7.613,7.613,0,0,0-1.781,2.961L3.4-1.539a1.665,1.665,0,0,0-.078.973c.039.242.242.605.891.605H8.672A1.207,1.207,0,0,0,9.809-.809l2.309-5.8h8.875a1.18,1.18,0,0,0,1.055-.566,1.334,1.334,0,0,0,.16-1.176L20.75-11.953a1.272,1.272,0,0,0-1.176-.812H14.547l5.188-13.129a.534.534,0,0,1,.082-.121h.16l.043.082L30.07-.852a1.2,1.2,0,0,0,1.172.891h4.336a.854.854,0,0,0,.895-.605,1.469,1.469,0,0,0-.121-.973Zm0,0" transform="translate(-3.281 33.836)" stroke="#16fafd" stroke-width="1" fill="url(#linear-gradient)"/>
      </g>
    </g>
    <g id="Groupe_50" data-name="Groupe 50" transform="translate(126.868)">
      <g id="Groupe_49" data-name="Groupe 49" transform="translate(0)">
        <path id="Tracé_11" data-name="Tracé 11" d="M35.539-33.836H31.082a1.233,1.233,0,0,0-1.176.848L19.977-7.9c0,.082-.039.082-.039.082l-.16.039a.305.305,0,0,0-.043-.121L9.645-32.988a1.088,1.088,0,0,0-1.133-.848H4.133a.815.815,0,0,0-.852.566A1.584,1.584,0,0,0,3.4-32.258L14.75-4.215c.121.242.2.445.285.609A5.027,5.027,0,0,0,19.855.039a4.879,4.879,0,0,0,2.8-.891,2.272,2.272,0,0,0,.609-.406,8.058,8.058,0,0,0,1.781-2.957L36.309-32.258a1.533,1.533,0,0,0,.121-1.012A.861.861,0,0,0,35.539-33.836Zm0,0" transform="translate(-3.242 33.836)" stroke="#16fafd" stroke-width="1" fill="url(#linear-gradient)"/>
      </g>
    </g>
    <g id="Groupe_52" data-name="Groupe 52" transform="translate(160.5 0.363)">
      <g id="Groupe_51" data-name="Groupe 51" transform="translate(0)">
        <path id="Tracé_12" data-name="Tracé 12" d="M27.6-7.254H13.332a7.467,7.467,0,0,1-2.105-.285,2.7,2.7,0,0,1-1.219-.891,4.186,4.186,0,0,1-.687-1.824c-.039-.2-.039-.484-.082-.687,0,0,.043-2.918.082-2.918H27.434c.324,0,1.137-.16,1.137-1.418v-3.2c0-1.254-.812-1.375-1.137-1.375l-20.91.039a3.345,3.345,0,0,0-2.754,1.7A3.154,3.154,0,0,0,3.324-17.1L3.242-12v.2A25.934,25.934,0,0,0,3.77-6.93,10.265,10.265,0,0,0,5.512-2.957,6.563,6.563,0,0,0,8.672-.73a12.555,12.555,0,0,0,4.539.691H27.6c.363,0,1.176-.121,1.176-1.379V-5.875C28.773-7.133,27.961-7.254,27.6-7.254Zm.039-26.219H4.336c-.324,0-1.094.16-1.094,1.457v3.164c0,1.254.77,1.375,1.094,1.375l23.3.043c.324,0,1.137-.164,1.137-1.418v-3.2C28.773-33.312,27.961-33.473,27.637-33.473Zm0,0" transform="translate(-3.242 33.473)" stroke="#16fafd" stroke-width="1" fill="url(#linear-gradient)"/>
      </g>
    </g>
    <g id="Groupe_54" data-name="Groupe 54" transform="translate(186.433 0.445)">
      <g id="Groupe_53" data-name="Groupe 53" transform="translate(0)">
        <path id="Tracé_13" data-name="Tracé 13" d="M30.879-23.707v0Zm.77,21.965L24.559-13.9A6.369,6.369,0,0,0,29.1-16.371c1.133-1.66,1.742-4.055,1.781-7.215-.039-3.16-.648-5.551-1.781-7.211-1.219-1.742-3.242-2.594-6-2.594H4.418c-.367,0-1.176.121-1.176,1.418v3.2c0,1.258.809,1.379,1.176,1.379H22.047a2.349,2.349,0,0,1,2.145.891,5.026,5.026,0,0,1,.648,2.918,5.009,5.009,0,0,1-.648,2.918,2.34,2.34,0,0,1-2.145.891H4.418c-.367,0-1.176.125-1.176,1.379v17.02c0,1.258.809,1.418,1.176,1.418H8.105c.363,0,1.133-.16,1.133-1.418v-12.4h8.551L25.125-.77A2.3,2.3,0,0,0,25.57-.2a1.323,1.323,0,0,0,.852.242h4.457a.923.923,0,0,0,.934-.809A1.455,1.455,0,0,0,31.648-1.742Zm0,0" transform="translate(-3.242 33.391)" stroke="#16fafd" stroke-width="1" fill="url(#linear-gradient)"/>
      </g>
    </g>
    <g id="Groupe_56" data-name="Groupe 56" transform="translate(215.445 0.445)">
      <g id="Groupe_55" data-name="Groupe 55" transform="translate(0)">
        <path id="Tracé_14" data-name="Tracé 14" d="M22.816-19.937H10.656c-.605,0-1.375-.242-1.375-2.23v-3a3.844,3.844,0,0,1,.324-1.7,1.13,1.13,0,0,1,1.094-.527H27.191c.324,0,1.137-.121,1.137-1.379v-3.242c0-1.254-.812-1.375-1.137-1.375H9.727a5.543,5.543,0,0,0-4.9,2.227A9.668,9.668,0,0,0,3.242-25.41v3.082a11.387,11.387,0,0,0,1.582,6.484c1.254,1.66,3.117,1.9,4.82,1.9H21.8c.609,0,1.418.246,1.418,2.23v3.484a3.335,3.335,0,0,1-.363,1.7A1.134,1.134,0,0,1,21.762-6H4.457c-.363,0-1.176.121-1.176,1.375v3.242C3.281-.121,4.094,0,4.457,0H22.734A5.659,5.659,0,0,0,27.68-2.27a9.827,9.827,0,0,0,1.539-5.715v-3.566a10.39,10.39,0,0,0-1.582-6.156A5.691,5.691,0,0,0,22.816-19.937Zm0,0" transform="translate(-3.242 33.391)" stroke="#16fafd" stroke-width="1" fill="url(#linear-gradient)"/>
      </g>
    </g>
    <g id="Groupe_58" data-name="Groupe 58" transform="translate(241.823 0.363)">
      <g id="Groupe_57" data-name="Groupe 57" transform="translate(0)">
        <path id="Tracé_15" data-name="Tracé 15" d="M27.6-7.254H13.332a7.467,7.467,0,0,1-2.105-.285,2.7,2.7,0,0,1-1.219-.891,4.186,4.186,0,0,1-.687-1.824c-.039-.2-.039-.484-.082-.687,0,0,.043-2.918.082-2.918H27.434c.324,0,1.137-.16,1.137-1.418v-3.2c0-1.254-.812-1.375-1.137-1.375l-20.91.039a3.345,3.345,0,0,0-2.754,1.7A3.154,3.154,0,0,0,3.324-17.1L3.242-12v.2A25.934,25.934,0,0,0,3.77-6.93,10.265,10.265,0,0,0,5.512-2.957,6.563,6.563,0,0,0,8.672-.73a12.555,12.555,0,0,0,4.539.691H27.6c.363,0,1.176-.121,1.176-1.379V-5.875C28.773-7.133,27.961-7.254,27.6-7.254Zm.039-26.219H4.336c-.324,0-1.094.16-1.094,1.457v3.164c0,1.254.77,1.375,1.094,1.375l23.3.043c.324,0,1.137-.164,1.137-1.418v-3.2C28.773-33.312,27.961-33.473,27.637-33.473Zm0,0" transform="translate(-3.242 33.473)" stroke="#16fafd" stroke-width="1" fill="url(#linear-gradient)"/>
      </g>
    </g>
    <g id="Groupe_60" data-name="Groupe 60" transform="translate(267.756 0.363)">
      <g id="Groupe_59" data-name="Groupe 59" transform="translate(0)">
        <path id="Tracé_16" data-name="Tracé 16" d="M27.6-7.254H13.332a7.467,7.467,0,0,1-2.105-.285,2.7,2.7,0,0,1-1.219-.891,4.186,4.186,0,0,1-.687-1.824c-.039-.2-.039-.484-.082-.687,0,0,.043-2.918.082-2.918H27.434c.324,0,1.137-.16,1.137-1.418v-3.2c0-1.254-.812-1.375-1.137-1.375l-20.91.039a3.345,3.345,0,0,0-2.754,1.7A3.154,3.154,0,0,0,3.324-17.1L3.242-12v.2A25.934,25.934,0,0,0,3.77-6.93,10.265,10.265,0,0,0,5.512-2.957,6.563,6.563,0,0,0,8.672-.73a12.555,12.555,0,0,0,4.539.691H27.6c.363,0,1.176-.121,1.176-1.379V-5.875C28.773-7.133,27.961-7.254,27.6-7.254Zm.039-26.219H4.336c-.324,0-1.094.16-1.094,1.457v3.164c0,1.254.77,1.375,1.094,1.375l23.3.043c.324,0,1.137-.164,1.137-1.418v-3.2C28.773-33.312,27.961-33.473,27.637-33.473Zm0,0" transform="translate(-3.242 33.473)" stroke="#16fafd" stroke-width="1" fill="url(#linear-gradient)"/>
      </g>
    </g>
    <g id="Groupe_62" data-name="Groupe 62" transform="translate(293.688 0.445)">
      <g id="Groupe_61" data-name="Groupe 61" transform="translate(0)">
        <path id="Tracé_17" data-name="Tracé 17" d="M30.918-25.855a11.472,11.472,0,0,0-1.941-4.254,8.236,8.236,0,0,0-3.445-2.473,13.655,13.655,0,0,0-4.906-.809H6.484v.039a3.585,3.585,0,0,0-2.8,1.7,5.476,5.476,0,0,0-.406,1.012L3.242-2.957A4.194,4.194,0,0,0,3.688-1.7,3.57,3.57,0,0,0,6.766.039H20.625A13.5,13.5,0,0,0,25.531-.77a7.991,7.991,0,0,0,3.445-2.512A11,11,0,0,0,30.918-7.5a26.252,26.252,0,0,0,.609-6v-6.359A26.252,26.252,0,0,0,30.918-25.855ZM9.2-6.2V-27.152c0-.16.039-.242.082-.242H20.5a6.918,6.918,0,0,1,2.391.363,2.985,2.985,0,0,1,1.5,1.1,4.766,4.766,0,0,1,.852,2.066,19.575,19.575,0,0,1,.285,3.4v7.578a18.751,18.751,0,0,1-.285,3.363,4.774,4.774,0,0,1-.852,2.109,3.25,3.25,0,0,1-1.5,1.094A6.982,6.982,0,0,1,20.5-6H9.238S9.2-6.039,9.2-6.2Zm0,0" transform="translate(-3.242 33.391)" stroke="#16fafd" stroke-width="1" fill="url(#linear-gradient)"/>
      </g>
    </g>
  </g>
</svg>
