<svg xmlns="http://www.w3.org/2000/svg" xmlns:xlink="http://www.w3.org/1999/xlink" width="250.426" height="245.888" viewBox="0 0 250.426 245.888">
  <defs>
    <linearGradient id="linear-gradient" x1="0.371" y1="0.709" x2="0.404" y2="-0.037" gradientUnits="objectBoundingBox">
      <stop offset="0" stop-color="#aa42ff"/>
      <stop offset="1" stop-color="#16fafd"/>
    </linearGradient>
    <clipPath id="clip-path">
      <path id="Tracé_19" data-name="Tracé 19" d="M76.562,136H326.988V324.471H76.562Zm0,0" transform="translate(-76.562 -136)" stroke="#16fafd" stroke-width="1" fill="url(#linear-gradient)"/>
    </clipPath>
    <clipPath id="clip-path-2">
      <path id="Tracé_21" data-name="Tracé 21" d="M76.563,89H153v77H76.563Zm0,0" transform="translate(-76.563 -89)" stroke="#16fafd" stroke-width="1" fill="url(#linear-gradient)"/>
    </clipPath>
  </defs>
  <g id="metaverseed-icon-logo-white" transform="translate(0 0.5)">
    <g id="Groupe_63" data-name="Groupe 63" transform="translate(0 56.917)" clip-path="url(#clip-path)">
      <path id="Tracé_18" data-name="Tracé 18" d="M322.932,216.934h-36.41l-36.133-49.747a4.307,4.307,0,0,0-.864-.875L210.392,137.05a3.948,3.948,0,0,0-3.1-.724,4.03,4.03,0,0,0-2.635,1.829L184.35,170.323,144.1,185.55a4.073,4.073,0,0,0-1.547,1.045l-27.862,30.339H80.619a4.12,4.12,0,0,0-4.041,4.2v99.209a4.117,4.117,0,0,0,4.041,4.2H322.932a4.113,4.113,0,0,0,4.036-4.2V221.133A4.116,4.116,0,0,0,322.932,216.934Zm-178.861,8.4-10.976,15.227H95.372l24.746-15.227Zm139.353,0,24.751,15.227H270.452l-10.976-15.227Zm35.467,48.3H294.3l-17.793-24.674h42.385ZM84.655,248.956H127.04L109.252,273.63h-24.6Zm52.476,0h35.3l-5.455,24.674H119.342Zm43.588,0h42.112l5.455,24.674H175.26Zm50.4,0h35.3l17.789,24.674H236.575Zm18.265-23.624,10.976,15.227h-31.1l-3.367-15.227Zm-31.775,0,3.367,15.227h-38.4l3.371-15.227Zm-43.324,15.227h-31.1l10.976-15.227h23.5ZM84.655,282.027H103.2L84.655,307.746Zm28.633,0h51.833l-7.544,34.121H88.691Zm60.117,0h56.737l7.544,34.121H165.861Zm65.026,0h51.828l24.6,34.121H245.979Zm61.923,0h18.538v25.719Zm18.538-44.636-19.6-12.06h19.6ZM276.4,216.934h-86.6l9.165-16.116,29.364-6.105a4.062,4.062,0,0,0,2.763-2.122,4.336,4.336,0,0,0,.189-3.571l-14.246-36.665,27.28,20.4ZM147.742,193.1l40.632-15.36a4.044,4.044,0,0,0,2-1.641l16.824-26.654,14.784,38.026-26.355,5.477a4.083,4.083,0,0,0-2.684,1.985l-12.51,22H125.86Zm-43.478,32.232-19.609,12.06v-12.06Zm0,0" transform="translate(-76.56 -135.955)" stroke="#16fafd" stroke-width="1" fill="url(#linear-gradient)"/>
    </g>
    <g id="Groupe_64" data-name="Groupe 64" transform="translate(0 9.917)" clip-path="url(#clip-path-2)">
      <path id="Tracé_20" data-name="Tracé 20" d="M114.645,165.871a38.039,38.039,0,1,0-38.066-38.039A38.1,38.1,0,0,0,114.645,165.871Zm0-68.922a30.885,30.885,0,1,1-30.906,30.883A30.929,30.929,0,0,1,114.645,96.949Zm0,0" transform="translate(-76.563 -89)" stroke="#16fafd" stroke-width="1" fill="url(#linear-gradient)"/>
    </g>
    <path id="Tracé_22" data-name="Tracé 22" d="M238.8,102.313,224.473,95.23l-7.086-14.316a3.727,3.727,0,0,0-6.418,0L203.883,95.23l-14.328,7.082a3.571,3.571,0,0,0,0,6.41l14.328,7.082,7.086,14.32a3.577,3.577,0,0,0,6.414,0l7.086-14.32,14.328-7.082a3.576,3.576,0,0,0,0-6.41Zm-18.59,7.621a3.617,3.617,0,0,0-1.621,1.621l-4.414,8.918-4.414-8.918a3.625,3.625,0,0,0-1.625-1.621l-8.922-4.41,8.922-4.414a3.606,3.606,0,0,0,1.625-1.621l4.414-8.918,4.414,8.918a3.6,3.6,0,0,0,1.621,1.621l8.926,4.414Zm0,0" transform="translate(-57.867 -79.083)" stroke="#16fafd" stroke-width="1" fill="url(#linear-gradient)"/>
    <path id="Tracé_23" data-name="Tracé 23" d="M290.039,133.285a3.589,3.589,0,0,0-3.68-.855l-15.137,5.109-15.141-5.109a3.575,3.575,0,0,0-4.539,4.531l5.117,15.133-5.117,15.129a3.575,3.575,0,0,0,4.539,4.531l15.141-5.109,15.137,5.109a3.575,3.575,0,0,0,4.539-4.531l-5.117-15.129,5.117-15.133A3.584,3.584,0,0,0,290.039,133.285Zm-11.426,19.957,3.191,9.43-9.437-3.187a3.529,3.529,0,0,0-2.293,0l-9.437,3.188,3.191-9.43a3.611,3.611,0,0,0,0-2.3l-3.191-9.43,9.438,3.188a3.611,3.611,0,0,0,2.3,0l9.438-3.187-3.191,9.43A3.533,3.533,0,0,0,278.613,153.242Zm0,0" transform="translate(-48.137 -70.757)" stroke="#16fafd" stroke-width="1" fill="url(#linear-gradient)"/>
  </g>
</svg>
